<svg width="40" height="40" viewBox="0 0 40 40" fill="none" xmlns="http://www.w3.org/2000/svg">
<path d="M19.9993 22.3337L11.8327 30.5003C11.5271 30.8059 11.1382 30.9587 10.666 30.9587C10.1938 30.9587 9.8049 30.8059 9.49935 30.5003C9.19379 30.1948 9.04102 29.8059 9.04102 29.3337C9.04102 28.8614 9.19379 28.4725 9.49935 28.167L17.666 20.0003L9.49935 11.8337C9.19379 11.5281 9.04102 11.1392 9.04102 10.667C9.04102 10.1948 9.19379 9.80588 9.49935 9.50033C9.8049 9.19477 10.1938 9.04199 10.666 9.04199C11.1382 9.04199 11.5271 9.19477 11.8327 9.50033L19.9993 17.667L28.166 9.50033C28.4716 9.19477 28.8605 9.04199 29.3327 9.04199C29.8049 9.04199 30.1938 9.19477 30.4993 9.50033C30.8049 9.80588 30.9577 10.1948 30.9577 10.667C30.9577 11.1392 30.8049 11.5281 30.4993 11.8337L22.3327 20.0003L30.4993 28.167C30.8049 28.4725 30.9577 28.8614 30.9577 29.3337C30.9577 29.8059 30.8049 30.1948 30.4993 30.5003C30.1938 30.8059 29.8049 30.9587 29.3327 30.9587C28.8605 30.9587 28.4716 30.8059 28.166 30.5003L19.9993 22.3337Z" fill="black"/>
</svg>
